solid OpenSCAD_Model
  facet normal 0 -1 0
    outer loop
      vertex -40 -40 20
      vertex -40 -40 0
      vertex 30 -40 0
    endloop
  endfacet
  facet normal 0 -1 0
    outer loop
      vertex 30 -40 20
      vertex -40 -40 20
      vertex 30 -40 0
    endloop
  endfacet
  facet normal 0 0 -1
    outer loop
      vertex -17.64 -23.0297 0
      vertex -40 40 0
      vertex 30 -40 0
    endloop
  endfacet
  facet normal 0 0 -1
    outer loop
      vertex -17.1963 26.2665 0
      vertex -40 40 0
      vertex 30 40 0
    endloop
  endfacet
  facet normal 0 0 -1
    outer loop
      vertex 31.7865 10.6317 0
      vertex 30 40 0
      vertex 40 30 0
    endloop
  endfacet
  facet normal 0 0 -1
    outer loop
      vertex 34.5 -18.25 0
      vertex 40 30 0
      vertex 40 -30 0
    endloop
  endfacet
  facet normal 0 0 -1
    outer loop
      vertex -40 -40 0
      vertex -40 40 0
      vertex -20.5811 -23.2147 0
    endloop
  endfacet
  facet normal 0 0 -1
    outer loop
      vertex -40 -40 0
      vertex -20.5811 -23.2147 0
      vertex -20.5811 -23.5907 0
    endloop
  endfacet
  facet normal 0 0 -1
    outer loop
      vertex -40 -40 0
      vertex -20.5811 -23.5907 0
      vertex -20.4876 -23.9549 0
    endloop
  endfacet
  facet normal 0 0 -1
    outer loop
      vertex -40 -40 0
      vertex -20.4876 -23.9549 0
      vertex -20.3064 -24.2844 0
    endloop
  endfacet
  facet normal 0 0 -1
    outer loop
      vertex -40 -40 0
      vertex -20.3064 -24.2844 0
      vertex -20.049 -24.5585 0
    endloop
  endfacet
  facet normal 0 0 -1
    outer loop
      vertex -40 -40 0
      vertex -20.049 -24.5585 0
      vertex -19.7316 -24.7599 0
    endloop
  endfacet
  facet normal 0 0 -1
    outer loop
      vertex -40 -40 0
      vertex -19.7316 -24.7599 0
      vertex -19.374 -24.8761 0
    endloop
  endfacet
  facet normal 0 0 -1
    outer loop
      vertex -40 -40 0
      vertex -19.374 -24.8761 0
      vertex 30 -40 0
    endloop
  endfacet
  facet normal 0 0 -1
    outer loop
      vertex -18.6294 -24.8293 0
      vertex 30 -40 0
      vertex -18.9987 -24.8997 0
    endloop
  endfacet
  facet normal 0 0 -1
    outer loop
      vertex -18.2892 -24.6692 0
      vertex 30 -40 0
      vertex -18.6294 -24.8293 0
    endloop
  endfacet
  facet normal 0 0 -1
    outer loop
      vertex -17.9995 -24.4295 0
      vertex 30 -40 0
      vertex -18.2892 -24.6692 0
    endloop
  endfacet
  facet normal 0 0 -1
    outer loop
      vertex -17.7785 -24.1253 0
      vertex 30 -40 0
      vertex -17.9995 -24.4295 0
    endloop
  endfacet
  facet normal 0 0 -1
    outer loop
      vertex -18.6387 23.6428 0
      vertex 30 -40 0
      vertex -18.9561 23.8442 0
    endloop
  endfacet
  facet normal 0 0 -1
    outer loop
      vertex -17.9995 -22.3759 0
      vertex -40 40 0
      vertex -17.7785 -22.6801 0
    endloop
  endfacet
  facet normal 0 0 -1
    outer loop
      vertex -18.6294 -21.9761 0
      vertex -40 40 0
      vertex -18.2892 -22.1362 0
    endloop
  endfacet
  facet normal 0 0 -1
    outer loop
      vertex -17.7785 -24.1253 0
      vertex -17.64 -23.7757 0
      vertex 30 -40 0
    endloop
  endfacet
  facet normal 0 0 -1
    outer loop
      vertex -18.2892 -22.1362 0
      vertex -40 40 0
      vertex -17.9995 -22.3759 0
    endloop
  endfacet
  facet normal 0 0 -1
    outer loop
      vertex -17.64 -23.7757 0
      vertex -17.5929 -23.4027 0
      vertex 30 -40 0
    endloop
  endfacet
  facet normal 0 0 -1
    outer loop
      vertex -17.7785 -22.6801 0
      vertex -40 40 0
      vertex -17.64 -23.0297 0
    endloop
  endfacet
  facet normal 0 0 -1
    outer loop
      vertex -17.5929 -23.4027 0
      vertex -17.64 -23.0297 0
      vertex 30 -40 0
    endloop
  endfacet
  facet normal 0 0 -1
    outer loop
      vertex -18.9987 -21.9057 0
      vertex -40 40 0
      vertex -18.6294 -21.9761 0
    endloop
  endfacet
  facet normal 0 0 -1
    outer loop
      vertex -19.374 -21.9293 0
      vertex -40 40 0
      vertex -18.9987 -21.9057 0
    endloop
  endfacet
  facet normal 0 0 -1
    outer loop
      vertex -19.7316 -22.0455 0
      vertex -40 40 0
      vertex -19.374 -21.9293 0
    endloop
  endfacet
  facet normal 0 0 -1
    outer loop
      vertex -20.049 -22.2469 0
      vertex -40 40 0
      vertex -19.7316 -22.0455 0
    endloop
  endfacet
  facet normal 0 0 -1
    outer loop
      vertex -20.3064 -22.521 0
      vertex -40 40 0
      vertex -20.049 -22.2469 0
    endloop
  endfacet
  facet normal 0 0 -1
    outer loop
      vertex -20.4876 -22.8505 0
      vertex -40 40 0
      vertex -20.3064 -22.521 0
    endloop
  endfacet
  facet normal 0 0 -1
    outer loop
      vertex -20.5811 -23.2147 0
      vertex -40 40 0
      vertex -20.4876 -22.8505 0
    endloop
  endfacet
  facet normal 0 0 -1
    outer loop
      vertex -19.4882 24.812 0
      vertex -40 40 0
      vertex -19.4882 25.188 0
    endloop
  endfacet
  facet normal 0 0 -1
    outer loop
      vertex -19.3947 24.4478 0
      vertex -40 40 0
      vertex -19.4882 24.812 0
    endloop
  endfacet
  facet normal 0 0 -1
    outer loop
      vertex -19.2135 24.1183 0
      vertex -40 40 0
      vertex -19.3947 24.4478 0
    endloop
  endfacet
  facet normal 0 0 -1
    outer loop
      vertex 30 -40 0
      vertex -40 40 0
      vertex -19.2135 24.1183 0
    endloop
  endfacet
  facet normal 0 0 -1
    outer loop
      vertex 30 -40 0
      vertex -19.2135 24.1183 0
      vertex -18.9561 23.8442 0
    endloop
  endfacet
  facet normal 0 0 -1
    outer loop
      vertex -18.2811 23.5266 0
      vertex 30 -40 0
      vertex -18.6387 23.6428 0
    endloop
  endfacet
  facet normal 0 0 -1
    outer loop
      vertex -17.9058 23.503 0
      vertex 30 -40 0
      vertex -18.2811 23.5266 0
    endloop
  endfacet
  facet normal 0 0 -1
    outer loop
      vertex -16.9065 23.9732 0
      vertex 30 40 0
      vertex -17.1963 23.7335 0
    endloop
  endfacet
  facet normal 0 0 -1
    outer loop
      vertex 30 -40 0
      vertex -17.9058 23.503 0
      vertex -17.5365 23.5734 0
    endloop
  endfacet
  facet normal 0 0 -1
    outer loop
      vertex 30 -40 0
      vertex -17.5365 23.5734 0
      vertex 30 40 0
    endloop
  endfacet
  facet normal 0 0 -1
    outer loop
      vertex -17.5365 23.5734 0
      vertex -17.1963 23.7335 0
      vertex 30 40 0
    endloop
  endfacet
  facet normal 0 0 -1
    outer loop
      vertex -16.9065 26.0268 0
      vertex 30 40 0
      vertex -16.6855 25.7226 0
    endloop
  endfacet
  facet normal 0 0 -1
    outer loop
      vertex -16.9065 23.9732 0
      vertex -16.6855 24.2774 0
      vertex 30 40 0
    endloop
  endfacet
  facet normal 0 0 -1
    outer loop
      vertex -16.6855 24.2774 0
      vertex -16.5471 24.627 0
      vertex 30 40 0
    endloop
  endfacet
  facet normal 0 0 -1
    outer loop
      vertex -16.5471 24.627 0
      vertex -16.5 25 0
      vertex 30 40 0
    endloop
  endfacet
  facet normal 0 0 -1
    outer loop
      vertex -16.5 25 0
      vertex -16.5471 25.373 0
      vertex 30 40 0
    endloop
  endfacet
  facet normal 0 0 -1
    outer loop
      vertex -16.5471 25.373 0
      vertex -16.6855 25.7226 0
      vertex 30 40 0
    endloop
  endfacet
  facet normal 0 0 -1
    outer loop
      vertex 33.0942 -19.747 0
      vertex 30 -40 0
      vertex 32.7189 -19.7234 0
    endloop
  endfacet
  facet normal 0 0 -1
    outer loop
      vertex -17.9058 26.497 0
      vertex -40 40 0
      vertex -17.5365 26.4266 0
    endloop
  endfacet
  facet normal 0 0 -1
    outer loop
      vertex -17.5365 26.4266 0
      vertex -40 40 0
      vertex -17.1963 26.2665 0
    endloop
  endfacet
  facet normal 0 0 -1
    outer loop
      vertex -16.9065 26.0268 0
      vertex -17.1963 26.2665 0
      vertex 30 40 0
    endloop
  endfacet
  facet normal 0 0 -1
    outer loop
      vertex -18.2811 26.4734 0
      vertex -40 40 0
      vertex -17.9058 26.497 0
    endloop
  endfacet
  facet normal 0 0 -1
    outer loop
      vertex -18.6387 26.3572 0
      vertex -40 40 0
      vertex -18.2811 26.4734 0
    endloop
  endfacet
  facet normal 0 0 -1
    outer loop
      vertex -18.9561 26.1558 0
      vertex -40 40 0
      vertex -18.6387 26.3572 0
    endloop
  endfacet
  facet normal 0 0 -1
    outer loop
      vertex -19.2135 25.8817 0
      vertex -40 40 0
      vertex -18.9561 26.1558 0
    endloop
  endfacet
  facet normal 0 0 -1
    outer loop
      vertex -19.3947 25.5522 0
      vertex -40 40 0
      vertex -19.2135 25.8817 0
    endloop
  endfacet
  facet normal 0 0 -1
    outer loop
      vertex -19.4882 25.188 0
      vertex -40 40 0
      vertex -19.3947 25.5522 0
    endloop
  endfacet
  facet normal 0 0 -1
    outer loop
      vertex 30 -40 0
      vertex 30 40 0
      vertex 31.5118 -18.062 0
    endloop
  endfacet
  facet normal 0 0 -1
    outer loop
      vertex 31.6053 -17.6978 0
      vertex 31.5118 -18.062 0
      vertex 40 30 0
    endloop
  endfacet
  facet normal 0 0 -1
    outer loop
      vertex 30 -40 0
      vertex 31.5118 -18.062 0
      vertex 31.5118 -18.438 0
    endloop
  endfacet
  facet normal 0 0 -1
    outer loop
      vertex 30 -40 0
      vertex 31.5118 -18.438 0
      vertex 31.6053 -18.8022 0
    endloop
  endfacet
  facet normal 0 0 -1
    outer loop
      vertex 30 -40 0
      vertex 31.6053 -18.8022 0
      vertex 31.7865 -19.1317 0
    endloop
  endfacet
  facet normal 0 0 -1
    outer loop
      vertex 30 -40 0
      vertex 31.7865 -19.1317 0
      vertex 32.0439 -19.4058 0
    endloop
  endfacet
  facet normal 0 0 -1
    outer loop
      vertex 30 -40 0
      vertex 32.0439 -19.4058 0
      vertex 32.3613 -19.6072 0
    endloop
  endfacet
  facet normal 0 0 -1
    outer loop
      vertex 30 -40 0
      vertex 32.3613 -19.6072 0
      vertex 32.7189 -19.7234 0
    endloop
  endfacet
  facet normal 0 0 -1
    outer loop
      vertex 33.0942 -16.753 0
      vertex 40 30 0
      vertex 33.4635 -16.8234 0
    endloop
  endfacet
  facet normal 0 0 -1
    outer loop
      vertex 30 -40 0
      vertex 33.0942 -19.747 0
      vertex 40 -30 0
    endloop
  endfacet
  facet normal 0 0 -1
    outer loop
      vertex 33.4635 -16.8234 0
      vertex 40 30 0
      vertex 33.8037 -16.9835 0
    endloop
  endfacet
  facet normal 0 0 -1
    outer loop
      vertex 33.0942 -19.747 0
      vertex 33.4635 -19.6766 0
      vertex 40 -30 0
    endloop
  endfacet
  facet normal 0 0 -1
    outer loop
      vertex 33.4635 -19.6766 0
      vertex 33.8037 -19.5165 0
      vertex 40 -30 0
    endloop
  endfacet
  facet normal 0 0 -1
    outer loop
      vertex 33.8037 -16.9835 0
      vertex 40 30 0
      vertex 34.0935 -17.2232 0
    endloop
  endfacet
  facet normal 0 0 -1
    outer loop
      vertex 33.8037 -19.5165 0
      vertex 34.0935 -19.2768 0
      vertex 40 -30 0
    endloop
  endfacet
  facet normal 0 0 -1
    outer loop
      vertex 34.0935 -17.2232 0
      vertex 40 30 0
      vertex 34.3145 -17.5274 0
    endloop
  endfacet
  facet normal 0 0 -1
    outer loop
      vertex 34.0935 -19.2768 0
      vertex 34.3145 -18.9726 0
      vertex 40 -30 0
    endloop
  endfacet
  facet normal 0 0 -1
    outer loop
      vertex 34.3145 -17.5274 0
      vertex 40 30 0
      vertex 34.4529 -17.877 0
    endloop
  endfacet
  facet normal 0 0 -1
    outer loop
      vertex 34.3145 -18.9726 0
      vertex 34.4529 -18.623 0
      vertex 40 -30 0
    endloop
  endfacet
  facet normal 0 0 -1
    outer loop
      vertex 34.4529 -18.623 0
      vertex 34.5 -18.25 0
      vertex 40 -30 0
    endloop
  endfacet
  facet normal 0 0 -1
    outer loop
      vertex 34.4529 -17.877 0
      vertex 40 30 0
      vertex 34.5 -18.25 0
    endloop
  endfacet
  facet normal 0 0 -1
    outer loop
      vertex 32.7189 -16.7766 0
      vertex 40 30 0
      vertex 33.0942 -16.753 0
    endloop
  endfacet
  facet normal 0 0 -1
    outer loop
      vertex 32.3613 -16.8928 0
      vertex 40 30 0
      vertex 32.7189 -16.7766 0
    endloop
  endfacet
  facet normal 0 0 -1
    outer loop
      vertex 32.0439 -17.0942 0
      vertex 40 30 0
      vertex 32.3613 -16.8928 0
    endloop
  endfacet
  facet normal 0 0 -1
    outer loop
      vertex 31.7865 -17.3683 0
      vertex 40 30 0
      vertex 32.0439 -17.0942 0
    endloop
  endfacet
  facet normal 0 0 -1
    outer loop
      vertex 31.6053 -17.6978 0
      vertex 40 30 0
      vertex 31.7865 -17.3683 0
    endloop
  endfacet
  facet normal 0 0 -1
    outer loop
      vertex 34.5 9.75 0
      vertex 40 30 0
      vertex 34.4529 9.37696 0
    endloop
  endfacet
  facet normal 0 0 -1
    outer loop
      vertex 31.5118 -18.062 0
      vertex 30 40 0
      vertex 31.5118 9.562 0
    endloop
  endfacet
  facet normal 0 0 -1
    outer loop
      vertex 30 40 0
      vertex 31.5118 9.938 0
      vertex 31.5118 9.562 0
    endloop
  endfacet
  facet normal 0 0 -1
    outer loop
      vertex 31.5118 -18.062 0
      vertex 31.5118 9.562 0
      vertex 31.6053 9.19781 0
    endloop
  endfacet
  facet normal 0 0 -1
    outer loop
      vertex 31.5118 -18.062 0
      vertex 31.6053 9.19781 0
      vertex 31.7865 8.86832 0
    endloop
  endfacet
  facet normal 0 0 -1
    outer loop
      vertex 31.5118 -18.062 0
      vertex 31.7865 8.86832 0
      vertex 32.0439 8.59423 0
    endloop
  endfacet
  facet normal 0 0 -1
    outer loop
      vertex 31.5118 -18.062 0
      vertex 32.0439 8.59423 0
      vertex 32.3613 8.39276 0
    endloop
  endfacet
  facet normal 0 0 -1
    outer loop
      vertex 31.5118 -18.062 0
      vertex 32.3613 8.39276 0
      vertex 32.7189 8.27657 0
    endloop
  endfacet
  facet normal 0 0 -1
    outer loop
      vertex 31.5118 -18.062 0
      vertex 32.7189 8.27657 0
      vertex 33.0942 8.25296 0
    endloop
  endfacet
  facet normal 0 0 -1
    outer loop
      vertex 31.5118 -18.062 0
      vertex 33.0942 8.25296 0
      vertex 33.4635 8.32341 0
    endloop
  endfacet
  facet normal 0 0 -1
    outer loop
      vertex 31.5118 -18.062 0
      vertex 33.4635 8.32341 0
      vertex 33.8037 8.48351 0
    endloop
  endfacet
  facet normal 0 0 -1
    outer loop
      vertex 31.5118 -18.062 0
      vertex 33.8037 8.48351 0
      vertex 34.0935 8.72318 0
    endloop
  endfacet
  facet normal 0 0 -1
    outer loop
      vertex 31.5118 -18.062 0
      vertex 34.0935 8.72318 0
      vertex 34.3145 9.02737 0
    endloop
  endfacet
  facet normal 0 0 -1
    outer loop
      vertex 31.5118 -18.062 0
      vertex 34.3145 9.02737 0
      vertex 34.4529 9.37696 0
    endloop
  endfacet
  facet normal 0 0 -1
    outer loop
      vertex 31.5118 -18.062 0
      vertex 34.4529 9.37696 0
      vertex 40 30 0
    endloop
  endfacet
  facet normal 0 0 -1
    outer loop
      vertex 34.4529 10.123 0
      vertex 40 30 0
      vertex 34.5 9.75 0
    endloop
  endfacet
  facet normal 0 0 -1
    outer loop
      vertex 34.3145 10.4726 0
      vertex 40 30 0
      vertex 34.4529 10.123 0
    endloop
  endfacet
  facet normal 0 0 -1
    outer loop
      vertex 34.0935 10.7768 0
      vertex 40 30 0
      vertex 34.3145 10.4726 0
    endloop
  endfacet
  facet normal 0 0 -1
    outer loop
      vertex 33.8037 11.0165 0
      vertex 40 30 0
      vertex 34.0935 10.7768 0
    endloop
  endfacet
  facet normal 0 0 -1
    outer loop
      vertex 33.4635 11.1766 0
      vertex 40 30 0
      vertex 33.8037 11.0165 0
    endloop
  endfacet
  facet normal 0 0 -1
    outer loop
      vertex 33.0942 11.247 0
      vertex 40 30 0
      vertex 33.4635 11.1766 0
    endloop
  endfacet
  facet normal 0 0 -1
    outer loop
      vertex 32.7189 11.2234 0
      vertex 40 30 0
      vertex 33.0942 11.247 0
    endloop
  endfacet
  facet normal 0 0 -1
    outer loop
      vertex 32.3613 11.1072 0
      vertex 40 30 0
      vertex 32.7189 11.2234 0
    endloop
  endfacet
  facet normal 0 0 -1
    outer loop
      vertex 32.0439 10.9058 0
      vertex 40 30 0
      vertex 32.3613 11.1072 0
    endloop
  endfacet
  facet normal 0 0 -1
    outer loop
      vertex 31.7865 10.6317 0
      vertex 40 30 0
      vertex 32.0439 10.9058 0
    endloop
  endfacet
  facet normal 0 0 -1
    outer loop
      vertex 31.6053 10.3022 0
      vertex 30 40 0
      vertex 31.7865 10.6317 0
    endloop
  endfacet
  facet normal 0 0 -1
    outer loop
      vertex 31.5118 9.938 0
      vertex 30 40 0
      vertex 31.6053 10.3022 0
    endloop
  endfacet
  facet normal 0 0 -1
    outer loop
      vertex -18.9987 -24.8997 0
      vertex 30 -40 0
      vertex -19.374 -24.8761 0
    endloop
  endfacet
  facet normal -1 0 0
    outer loop
      vertex -40 -22.493 15.8
      vertex -40 -40 20
      vertex -40 40 20
    endloop
  endfacet
  facet normal -1 0 0
    outer loop
      vertex -40 -13.493 15.8
      vertex -40 -22.493 15.8
      vertex -40 40 20
    endloop
  endfacet
  facet normal -1 0 0
    outer loop
      vertex -40 -40 0
      vertex -40 -40 20
      vertex -40 -22.493 4.8
    endloop
  endfacet
  facet normal -1 0 0
    outer loop
      vertex -40 -40 0
      vertex -40 -22.493 4.8
      vertex -40 40 0
    endloop
  endfacet
  facet normal -1 0 0
    outer loop
      vertex -40 -22.493 4.8
      vertex -40 -13.493 4.8
      vertex -40 40 0
    endloop
  endfacet
  facet normal -1 0 0
    outer loop
      vertex -40 6.4376 4.8
      vertex -40 -13.493 15.8
      vertex -40 6.4376 15.8
    endloop
  endfacet
  facet normal -1 0 0
    outer loop
      vertex -40 6.4376 15.8
      vertex -40 -13.493 15.8
      vertex -40 40 20
    endloop
  endfacet
  facet normal -1 0 0
    outer loop
      vertex -40 18.4376 15.8
      vertex -40 6.4376 15.8
      vertex -40 40 20
    endloop
  endfacet
  facet normal -1 0 0
    outer loop
      vertex -40 18.4376 15.8
      vertex -40 40 0
      vertex -40 18.4376 4.8
    endloop
  endfacet
  facet normal -1 0 0
    outer loop
      vertex -40 -13.493 4.8
      vertex -40 6.4376 4.8
      vertex -40 40 0
    endloop
  endfacet
  facet normal -1 0 0
    outer loop
      vertex -40 -13.493 15.8
      vertex -40 6.4376 4.8
      vertex -40 -13.493 4.8
    endloop
  endfacet
  facet normal -1 0 0
    outer loop
      vertex -40 6.4376 4.8
      vertex -40 18.4376 4.8
      vertex -40 40 0
    endloop
  endfacet
  facet normal -1 0 0
    outer loop
      vertex -40 40 0
      vertex -40 18.4376 15.8
      vertex -40 40 20
    endloop
  endfacet
  facet normal -1 0 0
    outer loop
      vertex -40 -22.493 4.8
      vertex -40 -40 20
      vertex -40 -22.493 15.8
    endloop
  endfacet
  facet normal 0 0 1
    outer loop
      vertex -36 -38 20
      vertex -40 -40 20
      vertex 30 -40 20
    endloop
  endfacet
  facet normal 0 0 1
    outer loop
      vertex 36 -2 20
      vertex 38 -2 20
      vertex 36 2 20
    endloop
  endfacet
  facet normal 0 0 1
    outer loop
      vertex 29 -38 20
      vertex -36 -38 20
      vertex 30 -40 20
    endloop
  endfacet
  facet normal 0 0 1
    outer loop
      vertex -40 40 20
      vertex -40 -40 20
      vertex -38 -36 20
    endloop
  endfacet
  facet normal 0 0 1
    outer loop
      vertex -40 40 20
      vertex -38 -36 20
      vertex -38 36 20
    endloop
  endfacet
  facet normal 0 0 1
    outer loop
      vertex 29 38 20
      vertex 38 29 20
      vertex 40 30 20
    endloop
  endfacet
  facet normal 0 0 1
    outer loop
      vertex 30 40 20
      vertex 29 38 20
      vertex 40 30 20
    endloop
  endfacet
  facet normal 0 0 1
    outer loop
      vertex 30 40 20
      vertex -40 40 20
      vertex 29 38 20
    endloop
  endfacet
  facet normal 0 0 1
    outer loop
      vertex 40 30 20
      vertex 38 29 20
      vertex 40 -30 20
    endloop
  endfacet
  facet normal 0 0 1
    outer loop
      vertex 38 29 20
      vertex 38 2 20
      vertex 40 -30 20
    endloop
  endfacet
  facet normal 0 0 1
    outer loop
      vertex 38 2 20
      vertex 38 -2 20
      vertex 40 -30 20
    endloop
  endfacet
  facet normal 0 0 1
    outer loop
      vertex 38 2 20
      vertex 36 2 20
      vertex 38 -2 20
    endloop
  endfacet
  facet normal 0 0 1
    outer loop
      vertex 40 -30 20
      vertex 38 -29 20
      vertex 30 -40 20
    endloop
  endfacet
  facet normal 0 0 1
    outer loop
      vertex -36 38 20
      vertex 29 38 20
      vertex -40 40 20
    endloop
  endfacet
  facet normal 0 0 1
    outer loop
      vertex 38 -29 20
      vertex 29 -38 20
      vertex 30 -40 20
    endloop
  endfacet
  facet normal 0 0 1
    outer loop
      vertex 38 -2 20
      vertex 38 -29 20
      vertex 40 -30 20
    endloop
  endfacet
  facet normal 0 0 1
    outer loop
      vertex -38 -36 20
      vertex -40 -40 20
      vertex -36 -38 20
    endloop
  endfacet
  facet normal 0 0 1
    outer loop
      vertex -38 36 20
      vertex -36 38 20
      vertex -40 40 20
    endloop
  endfacet
  facet normal 0.707107 -0.707107 0
    outer loop
      vertex 30 -40 20
      vertex 30 -40 0
      vertex 40 -30 0
    endloop
  endfacet
  facet normal 0.707107 -0.707107 0
    outer loop
      vertex 40 -30 20
      vertex 30 -40 20
      vertex 40 -30 0
    endloop
  endfacet
  facet normal 1 0 0
    outer loop
      vertex 40 -30 20
      vertex 40 -30 0
      vertex 40 30 0
    endloop
  endfacet
  facet normal 1 0 0
    outer loop
      vertex 40 30 20
      vertex 40 -30 20
      vertex 40 30 0
    endloop
  endfacet
  facet normal 0.707107 0.707107 0
    outer loop
      vertex 30 40 0
      vertex 30 40 20
      vertex 40 30 0
    endloop
  endfacet
  facet normal 0.707107 0.707107 0
    outer loop
      vertex 40 30 0
      vertex 30 40 20
      vertex 40 30 20
    endloop
  endfacet
  facet normal 0 1 0
    outer loop
      vertex -40 40 0
      vertex -40 40 20
      vertex 30 40 0
    endloop
  endfacet
  facet normal 0 1 0
    outer loop
      vertex 30 40 0
      vertex -40 40 20
      vertex 30 40 20
    endloop
  endfacet
  facet normal 0.968583 -0.248689 0
    outer loop
      vertex -20.4876 -22.8505 0
      vertex -20.4876 -22.8505 2
      vertex -20.5811 -23.2147 2
    endloop
  endfacet
  facet normal 0.968583 -0.248689 0
    outer loop
      vertex -20.5811 -23.2147 0
      vertex -20.4876 -22.8505 0
      vertex -20.5811 -23.2147 2
    endloop
  endfacet
  facet normal 1 0 0
    outer loop
      vertex -20.5811 -23.2147 0
      vertex -20.5811 -23.2147 2
      vertex -20.5811 -23.5907 2
    endloop
  endfacet
  facet normal 1 0 0
    outer loop
      vertex -20.5811 -23.5907 0
      vertex -20.5811 -23.2147 0
      vertex -20.5811 -23.5907 2
    endloop
  endfacet
  facet normal 0.876306 -0.481755 0
    outer loop
      vertex -20.3064 -22.521 0
      vertex -20.3064 -22.521 2
      vertex -20.4876 -22.8505 2
    endloop
  endfacet
  facet normal 0.876306 -0.481755 0
    outer loop
      vertex -20.4876 -22.8505 0
      vertex -20.3064 -22.521 0
      vertex -20.4876 -22.8505 2
    endloop
  endfacet
  facet normal 0.728969 -0.684546 0
    outer loop
      vertex -20.049 -22.2469 0
      vertex -20.049 -22.2469 2
      vertex -20.3064 -22.521 2
    endloop
  endfacet
  facet normal 0.728969 -0.684546 0
    outer loop
      vertex -20.3064 -22.521 0
      vertex -20.049 -22.2469 0
      vertex -20.3064 -22.521 2
    endloop
  endfacet
  facet normal 0.535827 -0.844328 0
    outer loop
      vertex -19.7316 -22.0455 0
      vertex -19.7316 -22.0455 2
      vertex -20.049 -22.2469 2
    endloop
  endfacet
  facet normal 0.535827 -0.844328 0
    outer loop
      vertex -20.049 -22.2469 0
      vertex -19.7316 -22.0455 0
      vertex -20.049 -22.2469 2
    endloop
  endfacet
  facet normal 0.309016 -0.951057 0
    outer loop
      vertex -19.374 -21.9293 0
      vertex -19.374 -21.9293 2
      vertex -19.7316 -22.0455 2
    endloop
  endfacet
  facet normal 0.309016 -0.951057 0
    outer loop
      vertex -19.7316 -22.0455 0
      vertex -19.374 -21.9293 0
      vertex -19.7316 -22.0455 2
    endloop
  endfacet
  facet normal 0.0627899 -0.998027 0
    outer loop
      vertex -18.9987 -21.9057 0
      vertex -18.9987 -21.9057 2
      vertex -19.374 -21.9293 2
    endloop
  endfacet
  facet normal 0.0627899 -0.998027 0
    outer loop
      vertex -19.374 -21.9293 0
      vertex -18.9987 -21.9057 0
      vertex -19.374 -21.9293 2
    endloop
  endfacet
  facet normal -0.187381 -0.982287 0
    outer loop
      vertex -18.6294 -21.9761 0
      vertex -18.6294 -21.9761 2
      vertex -18.9987 -21.9057 2
    endloop
  endfacet
  facet normal -0.187381 -0.982287 0
    outer loop
      vertex -18.9987 -21.9057 0
      vertex -18.6294 -21.9761 0
      vertex -18.9987 -21.9057 2
    endloop
  endfacet
  facet normal -0.425779 -0.904827 0
    outer loop
      vertex -18.2892 -22.1362 0
      vertex -18.2892 -22.1362 2
      vertex -18.6294 -21.9761 2
    endloop
  endfacet
  facet normal -0.425779 -0.904827 0
    outer loop
      vertex -18.6294 -21.9761 0
      vertex -18.2892 -22.1362 0
      vertex -18.6294 -21.9761 2
    endloop
  endfacet
  facet normal -0.637423 -0.770514 0
    outer loop
      vertex -17.9995 -22.3759 0
      vertex -17.9995 -22.3759 2
      vertex -18.2892 -22.1362 2
    endloop
  endfacet
  facet normal -0.637423 -0.770514 0
    outer loop
      vertex -18.2892 -22.1362 0
      vertex -17.9995 -22.3759 0
      vertex -18.2892 -22.1362 2
    endloop
  endfacet
  facet normal -0.809017 -0.587785 0
    outer loop
      vertex -17.7785 -22.6801 2
      vertex -17.9995 -22.3759 2
      vertex -17.7785 -22.6801 0
    endloop
  endfacet
  facet normal -0.809017 -0.587785 0
    outer loop
      vertex -17.7785 -22.6801 0
      vertex -17.9995 -22.3759 2
      vertex -17.9995 -22.3759 0
    endloop
  endfacet
  facet normal -0.929776 -0.368125 0
    outer loop
      vertex -17.64 -23.0297 2
      vertex -17.7785 -22.6801 2
      vertex -17.64 -23.0297 0
    endloop
  endfacet
  facet normal -0.929776 -0.368125 0
    outer loop
      vertex -17.64 -23.0297 0
      vertex -17.7785 -22.6801 2
      vertex -17.7785 -22.6801 0
    endloop
  endfacet
  facet normal -0.992115 -0.125333 0
    outer loop
      vertex -17.5929 -23.4027 2
      vertex -17.64 -23.0297 2
      vertex -17.5929 -23.4027 0
    endloop
  endfacet
  facet normal -0.992115 -0.125333 0
    outer loop
      vertex -17.5929 -23.4027 0
      vertex -17.64 -23.0297 2
      vertex -17.64 -23.0297 0
    endloop
  endfacet
  facet normal -0.992115 0.125333 0
    outer loop
      vertex -17.5929 -23.4027 2
      vertex -17.5929 -23.4027 0
      vertex -17.64 -23.7757 2
    endloop
  endfacet
  facet normal -0.992115 0.125333 0
    outer loop
      vertex -17.64 -23.7757 2
      vertex -17.5929 -23.4027 0
      vertex -17.64 -23.7757 0
    endloop
  endfacet
  facet normal -0.929776 0.368125 0
    outer loop
      vertex -17.64 -23.7757 2
      vertex -17.64 -23.7757 0
      vertex -17.7785 -24.1253 2
    endloop
  endfacet
  facet normal -0.929776 0.368125 0
    outer loop
      vertex -17.7785 -24.1253 2
      vertex -17.64 -23.7757 0
      vertex -17.7785 -24.1253 0
    endloop
  endfacet
  facet normal -0.809017 0.587785 0
    outer loop
      vertex -17.7785 -24.1253 2
      vertex -17.7785 -24.1253 0
      vertex -17.9995 -24.4295 2
    endloop
  endfacet
  facet normal -0.809017 0.587785 0
    outer loop
      vertex -17.9995 -24.4295 2
      vertex -17.7785 -24.1253 0
      vertex -17.9995 -24.4295 0
    endloop
  endfacet
  facet normal -0.637423 0.770514 0
    outer loop
      vertex -17.9995 -24.4295 2
      vertex -17.9995 -24.4295 0
      vertex -18.2892 -24.6692 2
    endloop
  endfacet
  facet normal -0.637423 0.770514 0
    outer loop
      vertex -18.2892 -24.6692 2
      vertex -17.9995 -24.4295 0
      vertex -18.2892 -24.6692 0
    endloop
  endfacet
  facet normal -0.425779 0.904827 0
    outer loop
      vertex -18.2892 -24.6692 2
      vertex -18.2892 -24.6692 0
      vertex -18.6294 -24.8293 2
    endloop
  endfacet
  facet normal -0.425779 0.904827 0
    outer loop
      vertex -18.6294 -24.8293 2
      vertex -18.2892 -24.6692 0
      vertex -18.6294 -24.8293 0
    endloop
  endfacet
  facet normal -0.187381 0.982287 0
    outer loop
      vertex -18.6294 -24.8293 2
      vertex -18.6294 -24.8293 0
      vertex -18.9987 -24.8997 2
    endloop
  endfacet
  facet normal -0.187381 0.982287 0
    outer loop
      vertex -18.9987 -24.8997 2
      vertex -18.6294 -24.8293 0
      vertex -18.9987 -24.8997 0
    endloop
  endfacet
  facet normal 0.0627899 0.998027 0
    outer loop
      vertex -18.9987 -24.8997 2
      vertex -18.9987 -24.8997 0
      vertex -19.374 -24.8761 2
    endloop
  endfacet
  facet normal 0.0627899 0.998027 0
    outer loop
      vertex -19.374 -24.8761 2
      vertex -18.9987 -24.8997 0
      vertex -19.374 -24.8761 0
    endloop
  endfacet
  facet normal 0.309016 0.951057 0
    outer loop
      vertex -19.374 -24.8761 2
      vertex -19.374 -24.8761 0
      vertex -19.7316 -24.7599 2
    endloop
  endfacet
  facet normal 0.309016 0.951057 0
    outer loop
      vertex -19.7316 -24.7599 2
      vertex -19.374 -24.8761 0
      vertex -19.7316 -24.7599 0
    endloop
  endfacet
  facet normal 0.535827 0.844328 0
    outer loop
      vertex -19.7316 -24.7599 2
      vertex -19.7316 -24.7599 0
      vertex -20.049 -24.5585 2
    endloop
  endfacet
  facet normal 0.535827 0.844328 0
    outer loop
      vertex -20.049 -24.5585 2
      vertex -19.7316 -24.7599 0
      vertex -20.049 -24.5585 0
    endloop
  endfacet
  facet normal 0.728969 0.684546 0
    outer loop
      vertex -20.3064 -24.2844 2
      vertex -20.049 -24.5585 2
      vertex -20.049 -24.5585 0
    endloop
  endfacet
  facet normal 0.728969 0.684546 0
    outer loop
      vertex -20.3064 -24.2844 0
      vertex -20.3064 -24.2844 2
      vertex -20.049 -24.5585 0
    endloop
  endfacet
  facet normal 0.876306 0.481755 0
    outer loop
      vertex -20.4876 -23.9549 2
      vertex -20.3064 -24.2844 2
      vertex -20.3064 -24.2844 0
    endloop
  endfacet
  facet normal 0.876306 0.481755 0
    outer loop
      vertex -20.4876 -23.9549 0
      vertex -20.4876 -23.9549 2
      vertex -20.3064 -24.2844 0
    endloop
  endfacet
  facet normal 0.968583 0.248689 0
    outer loop
      vertex -20.5811 -23.5907 2
      vertex -20.4876 -23.9549 2
      vertex -20.4876 -23.9549 0
    endloop
  endfacet
  facet normal 0.968583 0.248689 0
    outer loop
      vertex -20.5811 -23.5907 0
      vertex -20.5811 -23.5907 2
      vertex -20.4876 -23.9549 0
    endloop
  endfacet
  facet normal 0.968583 -0.248689 0
    outer loop
      vertex -19.3947 25.5522 0
      vertex -19.3947 25.5522 2
      vertex -19.4882 25.188 2
    endloop
  endfacet
  facet normal 0.968583 -0.248689 0
    outer loop
      vertex -19.4882 25.188 0
      vertex -19.3947 25.5522 0
      vertex -19.4882 25.188 2
    endloop
  endfacet
  facet normal 1 0 0
    outer loop
      vertex -19.4882 25.188 0
      vertex -19.4882 25.188 2
      vertex -19.4882 24.812 2
    endloop
  endfacet
  facet normal 1 0 0
    outer loop
      vertex -19.4882 24.812 0
      vertex -19.4882 25.188 0
      vertex -19.4882 24.812 2
    endloop
  endfacet
  facet normal 0.876306 -0.481755 0
    outer loop
      vertex -19.2135 25.8817 0
      vertex -19.2135 25.8817 2
      vertex -19.3947 25.5522 2
    endloop
  endfacet
  facet normal 0.876306 -0.481755 0
    outer loop
      vertex -19.3947 25.5522 0
      vertex -19.2135 25.8817 0
      vertex -19.3947 25.5522 2
    endloop
  endfacet
  facet normal 0.728969 -0.684546 0
    outer loop
      vertex -18.9561 26.1558 0
      vertex -18.9561 26.1558 2
      vertex -19.2135 25.8817 2
    endloop
  endfacet
  facet normal 0.728969 -0.684546 0
    outer loop
      vertex -19.2135 25.8817 0
      vertex -18.9561 26.1558 0
      vertex -19.2135 25.8817 2
    endloop
  endfacet
  facet normal 0.535827 -0.844328 0
    outer loop
      vertex -18.6387 26.3572 0
      vertex -18.6387 26.3572 2
      vertex -18.9561 26.1558 2
    endloop
  endfacet
  facet normal 0.535827 -0.844328 0
    outer loop
      vertex -18.9561 26.1558 0
      vertex -18.6387 26.3572 0
      vertex -18.9561 26.1558 2
    endloop
  endfacet
  facet normal 0.309016 -0.951057 0
    outer loop
      vertex -18.2811 26.4734 0
      vertex -18.2811 26.4734 2
      vertex -18.6387 26.3572 2
    endloop
  endfacet
  facet normal 0.309016 -0.951057 0
    outer loop
      vertex -18.6387 26.3572 0
      vertex -18.2811 26.4734 0
      vertex -18.6387 26.3572 2
    endloop
  endfacet
  facet normal 0.0627899 -0.998027 0
    outer loop
      vertex -17.9058 26.497 0
      vertex -17.9058 26.497 2
      vertex -18.2811 26.4734 2
    endloop
  endfacet
  facet normal 0.0627899 -0.998027 0
    outer loop
      vertex -18.2811 26.4734 0
      vertex -17.9058 26.497 0
      vertex -18.2811 26.4734 2
    endloop
  endfacet
  facet normal -0.187381 -0.982287 0
    outer loop
      vertex -17.5365 26.4266 0
      vertex -17.5365 26.4266 2
      vertex -17.9058 26.497 2
    endloop
  endfacet
  facet normal -0.187381 -0.982287 0
    outer loop
      vertex -17.9058 26.497 0
      vertex -17.5365 26.4266 0
      vertex -17.9058 26.497 2
    endloop
  endfacet
  facet normal -0.425779 -0.904827 0
    outer loop
      vertex -17.1963 26.2665 0
      vertex -17.1963 26.2665 2
      vertex -17.5365 26.4266 2
    endloop
  endfacet
  facet normal -0.425779 -0.904827 0
    outer loop
      vertex -17.5365 26.4266 0
      vertex -17.1963 26.2665 0
      vertex -17.5365 26.4266 2
    endloop
  endfacet
  facet normal -0.637423 -0.770514 0
    outer loop
      vertex -16.9065 26.0268 0
      vertex -16.9065 26.0268 2
      vertex -17.1963 26.2665 2
    endloop
  endfacet
  facet normal -0.637423 -0.770514 0
    outer loop
      vertex -17.1963 26.2665 0
      vertex -16.9065 26.0268 0
      vertex -17.1963 26.2665 2
    endloop
  endfacet
  facet normal -0.809017 -0.587785 0
    outer loop
      vertex -16.6855 25.7226 2
      vertex -16.9065 26.0268 2
      vertex -16.6855 25.7226 0
    endloop
  endfacet
  facet normal -0.809017 -0.587785 0
    outer loop
      vertex -16.6855 25.7226 0
      vertex -16.9065 26.0268 2
      vertex -16.9065 26.0268 0
    endloop
  endfacet
  facet normal -0.929776 -0.368125 0
    outer loop
      vertex -16.5471 25.373 2
      vertex -16.6855 25.7226 2
      vertex -16.5471 25.373 0
    endloop
  endfacet
  facet normal -0.929776 -0.368125 0
    outer loop
      vertex -16.5471 25.373 0
      vertex -16.6855 25.7226 2
      vertex -16.6855 25.7226 0
    endloop
  endfacet
  facet normal -0.992115 -0.125333 0
    outer loop
      vertex -16.5 25 2
      vertex -16.5471 25.373 2
      vertex -16.5 25 0
    endloop
  endfacet
  facet normal -0.992115 -0.125333 0
    outer loop
      vertex -16.5 25 0
      vertex -16.5471 25.373 2
      vertex -16.5471 25.373 0
    endloop
  endfacet
  facet normal -0.992115 0.125333 0
    outer loop
      vertex -16.5 25 2
      vertex -16.5 25 0
      vertex -16.5471 24.627 2
    endloop
  endfacet
  facet normal -0.992115 0.125333 0
    outer loop
      vertex -16.5471 24.627 2
      vertex -16.5 25 0
      vertex -16.5471 24.627 0
    endloop
  endfacet
  facet normal -0.929776 0.368125 0
    outer loop
      vertex -16.5471 24.627 2
      vertex -16.5471 24.627 0
      vertex -16.6855 24.2774 2
    endloop
  endfacet
  facet normal -0.929776 0.368125 0
    outer loop
      vertex -16.6855 24.2774 2
      vertex -16.5471 24.627 0
      vertex -16.6855 24.2774 0
    endloop
  endfacet
  facet normal -0.809017 0.587785 0
    outer loop
      vertex -16.6855 24.2774 2
      vertex -16.6855 24.2774 0
      vertex -16.9065 23.9732 2
    endloop
  endfacet
  facet normal -0.809017 0.587785 0
    outer loop
      vertex -16.9065 23.9732 2
      vertex -16.6855 24.2774 0
      vertex -16.9065 23.9732 0
    endloop
  endfacet
  facet normal -0.637423 0.770514 0
    outer loop
      vertex -16.9065 23.9732 2
      vertex -16.9065 23.9732 0
      vertex -17.1963 23.7335 2
    endloop
  endfacet
  facet normal -0.637423 0.770514 0
    outer loop
      vertex -17.1963 23.7335 2
      vertex -16.9065 23.9732 0
      vertex -17.1963 23.7335 0
    endloop
  endfacet
  facet normal -0.425779 0.904827 0
    outer loop
      vertex -17.1963 23.7335 2
      vertex -17.1963 23.7335 0
      vertex -17.5365 23.5734 2
    endloop
  endfacet
  facet normal -0.425779 0.904827 0
    outer loop
      vertex -17.5365 23.5734 2
      vertex -17.1963 23.7335 0
      vertex -17.5365 23.5734 0
    endloop
  endfacet
  facet normal -0.187381 0.982287 0
    outer loop
      vertex -17.5365 23.5734 2
      vertex -17.5365 23.5734 0
      vertex -17.9058 23.503 2
    endloop
  endfacet
  facet normal -0.187381 0.982287 0
    outer loop
      vertex -17.9058 23.503 2
      vertex -17.5365 23.5734 0
      vertex -17.9058 23.503 0
    endloop
  endfacet
  facet normal 0.0627899 0.998027 0
    outer loop
      vertex -17.9058 23.503 2
      vertex -17.9058 23.503 0
      vertex -18.2811 23.5266 2
    endloop
  endfacet
  facet normal 0.0627899 0.998027 0
    outer loop
      vertex -18.2811 23.5266 2
      vertex -17.9058 23.503 0
      vertex -18.2811 23.5266 0
    endloop
  endfacet
  facet normal 0.309016 0.951057 0
    outer loop
      vertex -18.2811 23.5266 2
      vertex -18.2811 23.5266 0
      vertex -18.6387 23.6428 2
    endloop
  endfacet
  facet normal 0.309016 0.951057 0
    outer loop
      vertex -18.6387 23.6428 2
      vertex -18.2811 23.5266 0
      vertex -18.6387 23.6428 0
    endloop
  endfacet
  facet normal 0.535827 0.844328 0
    outer loop
      vertex -18.6387 23.6428 2
      vertex -18.6387 23.6428 0
      vertex -18.9561 23.8442 2
    endloop
  endfacet
  facet normal 0.535827 0.844328 0
    outer loop
      vertex -18.9561 23.8442 2
      vertex -18.6387 23.6428 0
      vertex -18.9561 23.8442 0
    endloop
  endfacet
  facet normal 0.728969 0.684546 0
    outer loop
      vertex -19.2135 24.1183 2
      vertex -18.9561 23.8442 2
      vertex -18.9561 23.8442 0
    endloop
  endfacet
  facet normal 0.728969 0.684546 0
    outer loop
      vertex -19.2135 24.1183 0
      vertex -19.2135 24.1183 2
      vertex -18.9561 23.8442 0
    endloop
  endfacet
  facet normal 0.876306 0.481755 0
    outer loop
      vertex -19.3947 24.4478 2
      vertex -19.2135 24.1183 2
      vertex -19.2135 24.1183 0
    endloop
  endfacet
  facet normal 0.876306 0.481755 0
    outer loop
      vertex -19.3947 24.4478 0
      vertex -19.3947 24.4478 2
      vertex -19.2135 24.1183 0
    endloop
  endfacet
  facet normal 0.968583 0.248689 0
    outer loop
      vertex -19.4882 24.812 2
      vertex -19.3947 24.4478 2
      vertex -19.3947 24.4478 0
    endloop
  endfacet
  facet normal 0.968583 0.248689 0
    outer loop
      vertex -19.4882 24.812 0
      vertex -19.4882 24.812 2
      vertex -19.3947 24.4478 0
    endloop
  endfacet
  facet normal 0.968583 -0.248689 0
    outer loop
      vertex 31.6053 -17.6978 0
      vertex 31.6053 -17.6978 2
      vertex 31.5118 -18.062 2
    endloop
  endfacet
  facet normal 0.968583 -0.248689 0
    outer loop
      vertex 31.5118 -18.062 0
      vertex 31.6053 -17.6978 0
      vertex 31.5118 -18.062 2
    endloop
  endfacet
  facet normal 1 0 0
    outer loop
      vertex 31.5118 -18.062 0
      vertex 31.5118 -18.062 2
      vertex 31.5118 -18.438 2
    endloop
  endfacet
  facet normal 1 0 0
    outer loop
      vertex 31.5118 -18.438 0
      vertex 31.5118 -18.062 0
      vertex 31.5118 -18.438 2
    endloop
  endfacet
  facet normal 0.876306 -0.481755 0
    outer loop
      vertex 31.7865 -17.3683 0
      vertex 31.7865 -17.3683 2
      vertex 31.6053 -17.6978 2
    endloop
  endfacet
  facet normal 0.876306 -0.481755 0
    outer loop
      vertex 31.6053 -17.6978 0
      vertex 31.7865 -17.3683 0
      vertex 31.6053 -17.6978 2
    endloop
  endfacet
  facet normal 0.728969 -0.684546 0
    outer loop
      vertex 32.0439 -17.0942 0
      vertex 32.0439 -17.0942 2
      vertex 31.7865 -17.3683 2
    endloop
  endfacet
  facet normal 0.728969 -0.684546 0
    outer loop
      vertex 31.7865 -17.3683 0
      vertex 32.0439 -17.0942 0
      vertex 31.7865 -17.3683 2
    endloop
  endfacet
  facet normal 0.535827 -0.844328 0
    outer loop
      vertex 32.3613 -16.8928 0
      vertex 32.3613 -16.8928 2
      vertex 32.0439 -17.0942 2
    endloop
  endfacet
  facet normal 0.535827 -0.844328 0
    outer loop
      vertex 32.0439 -17.0942 0
      vertex 32.3613 -16.8928 0
      vertex 32.0439 -17.0942 2
    endloop
  endfacet
  facet normal 0.309016 -0.951057 0
    outer loop
      vertex 32.7189 -16.7766 0
      vertex 32.7189 -16.7766 2
      vertex 32.3613 -16.8928 2
    endloop
  endfacet
  facet normal 0.309016 -0.951057 0
    outer loop
      vertex 32.3613 -16.8928 0
      vertex 32.7189 -16.7766 0
      vertex 32.3613 -16.8928 2
    endloop
  endfacet
  facet normal 0.0627899 -0.998027 0
    outer loop
      vertex 33.0942 -16.753 0
      vertex 33.0942 -16.753 2
      vertex 32.7189 -16.7766 2
    endloop
  endfacet
  facet normal 0.0627899 -0.998027 0
    outer loop
      vertex 32.7189 -16.7766 0
      vertex 33.0942 -16.753 0
      vertex 32.7189 -16.7766 2
    endloop
  endfacet
  facet normal -0.187381 -0.982287 0
    outer loop
      vertex 33.4635 -16.8234 0
      vertex 33.4635 -16.8234 2
      vertex 33.0942 -16.753 2
    endloop
  endfacet
  facet normal -0.187381 -0.982287 0
    outer loop
      vertex 33.0942 -16.753 0
      vertex 33.4635 -16.8234 0
      vertex 33.0942 -16.753 2
    endloop
  endfacet
  facet normal -0.425779 -0.904827 0
    outer loop
      vertex 33.8037 -16.9835 0
      vertex 33.8037 -16.9835 2
      vertex 33.4635 -16.8234 2
    endloop
  endfacet
  facet normal -0.425779 -0.904827 0
    outer loop
      vertex 33.4635 -16.8234 0
      vertex 33.8037 -16.9835 0
      vertex 33.4635 -16.8234 2
    endloop
  endfacet
  facet normal -0.637423 -0.770514 0
    outer loop
      vertex 34.0935 -17.2232 0
      vertex 34.0935 -17.2232 2
      vertex 33.8037 -16.9835 2
    endloop
  endfacet
  facet normal -0.637423 -0.770514 0
    outer loop
      vertex 33.8037 -16.9835 0
      vertex 34.0935 -17.2232 0
      vertex 33.8037 -16.9835 2
    endloop
  endfacet
  facet normal -0.809017 -0.587785 0
    outer loop
      vertex 34.3145 -17.5274 2
      vertex 34.0935 -17.2232 2
      vertex 34.3145 -17.5274 0
    endloop
  endfacet
  facet normal -0.809017 -0.587785 0
    outer loop
      vertex 34.3145 -17.5274 0
      vertex 34.0935 -17.2232 2
      vertex 34.0935 -17.2232 0
    endloop
  endfacet
  facet normal -0.929776 -0.368125 0
    outer loop
      vertex 34.4529 -17.877 2
      vertex 34.3145 -17.5274 2
      vertex 34.4529 -17.877 0
    endloop
  endfacet
  facet normal -0.929776 -0.368125 0
    outer loop
      vertex 34.4529 -17.877 0
      vertex 34.3145 -17.5274 2
      vertex 34.3145 -17.5274 0
    endloop
  endfacet
  facet normal -0.992115 -0.125333 0
    outer loop
      vertex 34.5 -18.25 2
      vertex 34.4529 -17.877 2
      vertex 34.5 -18.25 0
    endloop
  endfacet
  facet normal -0.992115 -0.125333 0
    outer loop
      vertex 34.5 -18.25 0
      vertex 34.4529 -17.877 2
      vertex 34.4529 -17.877 0
    endloop
  endfacet
  facet normal -0.992115 0.125333 0
    outer loop
      vertex 34.5 -18.25 2
      vertex 34.5 -18.25 0
      vertex 34.4529 -18.623 2
    endloop
  endfacet
  facet normal -0.992115 0.125333 0
    outer loop
      vertex 34.4529 -18.623 2
      vertex 34.5 -18.25 0
      vertex 34.4529 -18.623 0
    endloop
  endfacet
  facet normal -0.929776 0.368125 0
    outer loop
      vertex 34.4529 -18.623 2
      vertex 34.4529 -18.623 0
      vertex 34.3145 -18.9726 2
    endloop
  endfacet
  facet normal -0.929776 0.368125 0
    outer loop
      vertex 34.3145 -18.9726 2
      vertex 34.4529 -18.623 0
      vertex 34.3145 -18.9726 0
    endloop
  endfacet
  facet normal -0.809017 0.587785 0
    outer loop
      vertex 34.3145 -18.9726 2
      vertex 34.3145 -18.9726 0
      vertex 34.0935 -19.2768 2
    endloop
  endfacet
  facet normal -0.809017 0.587785 0
    outer loop
      vertex 34.0935 -19.2768 2
      vertex 34.3145 -18.9726 0
      vertex 34.0935 -19.2768 0
    endloop
  endfacet
  facet normal -0.637423 0.770514 0
    outer loop
      vertex 34.0935 -19.2768 2
      vertex 34.0935 -19.2768 0
      vertex 33.8037 -19.5165 2
    endloop
  endfacet
  facet normal -0.637423 0.770514 0
    outer loop
      vertex 33.8037 -19.5165 2
      vertex 34.0935 -19.2768 0
      vertex 33.8037 -19.5165 0
    endloop
  endfacet
  facet normal -0.425779 0.904827 0
    outer loop
      vertex 33.8037 -19.5165 2
      vertex 33.8037 -19.5165 0
      vertex 33.4635 -19.6766 2
    endloop
  endfacet
  facet normal -0.425779 0.904827 0
    outer loop
      vertex 33.4635 -19.6766 2
      vertex 33.8037 -19.5165 0
      vertex 33.4635 -19.6766 0
    endloop
  endfacet
  facet normal -0.187381 0.982287 0
    outer loop
      vertex 33.4635 -19.6766 2
      vertex 33.4635 -19.6766 0
      vertex 33.0942 -19.747 2
    endloop
  endfacet
  facet normal -0.187381 0.982287 0
    outer loop
      vertex 33.0942 -19.747 2
      vertex 33.4635 -19.6766 0
      vertex 33.0942 -19.747 0
    endloop
  endfacet
  facet normal 0.0627899 0.998027 0
    outer loop
      vertex 33.0942 -19.747 2
      vertex 33.0942 -19.747 0
      vertex 32.7189 -19.7234 2
    endloop
  endfacet
  facet normal 0.0627899 0.998027 0
    outer loop
      vertex 32.7189 -19.7234 2
      vertex 33.0942 -19.747 0
      vertex 32.7189 -19.7234 0
    endloop
  endfacet
  facet normal 0.309016 0.951057 0
    outer loop
      vertex 32.7189 -19.7234 2
      vertex 32.7189 -19.7234 0
      vertex 32.3613 -19.6072 2
    endloop
  endfacet
  facet normal 0.309016 0.951057 0
    outer loop
      vertex 32.3613 -19.6072 2
      vertex 32.7189 -19.7234 0
      vertex 32.3613 -19.6072 0
    endloop
  endfacet
  facet normal 0.535827 0.844328 0
    outer loop
      vertex 32.3613 -19.6072 2
      vertex 32.3613 -19.6072 0
      vertex 32.0439 -19.4058 2
    endloop
  endfacet
  facet normal 0.535827 0.844328 0
    outer loop
      vertex 32.0439 -19.4058 2
      vertex 32.3613 -19.6072 0
      vertex 32.0439 -19.4058 0
    endloop
  endfacet
  facet normal 0.728969 0.684546 0
    outer loop
      vertex 31.7865 -19.1317 2
      vertex 32.0439 -19.4058 2
      vertex 32.0439 -19.4058 0
    endloop
  endfacet
  facet normal 0.728969 0.684546 0
    outer loop
      vertex 31.7865 -19.1317 0
      vertex 31.7865 -19.1317 2
      vertex 32.0439 -19.4058 0
    endloop
  endfacet
  facet normal 0.876306 0.481755 0
    outer loop
      vertex 31.6053 -18.8022 2
      vertex 31.7865 -19.1317 2
      vertex 31.7865 -19.1317 0
    endloop
  endfacet
  facet normal 0.876306 0.481755 0
    outer loop
      vertex 31.6053 -18.8022 0
      vertex 31.6053 -18.8022 2
      vertex 31.7865 -19.1317 0
    endloop
  endfacet
  facet normal 0.968583 0.248689 0
    outer loop
      vertex 31.5118 -18.438 2
      vertex 31.6053 -18.8022 2
      vertex 31.6053 -18.8022 0
    endloop
  endfacet
  facet normal 0.968583 0.248689 0
    outer loop
      vertex 31.5118 -18.438 0
      vertex 31.5118 -18.438 2
      vertex 31.6053 -18.8022 0
    endloop
  endfacet
  facet normal 0.968583 -0.248689 0
    outer loop
      vertex 31.6053 10.3022 0
      vertex 31.6053 10.3022 2
      vertex 31.5118 9.938 2
    endloop
  endfacet
  facet normal 0.968583 -0.248689 0
    outer loop
      vertex 31.5118 9.938 0
      vertex 31.6053 10.3022 0
      vertex 31.5118 9.938 2
    endloop
  endfacet
  facet normal 1 0 0
    outer loop
      vertex 31.5118 9.938 0
      vertex 31.5118 9.938 2
      vertex 31.5118 9.562 2
    endloop
  endfacet
  facet normal 1 0 0
    outer loop
      vertex 31.5118 9.562 0
      vertex 31.5118 9.938 0
      vertex 31.5118 9.562 2
    endloop
  endfacet
  facet normal 0.876306 -0.481755 0
    outer loop
      vertex 31.7865 10.6317 0
      vertex 31.7865 10.6317 2
      vertex 31.6053 10.3022 2
    endloop
  endfacet
  facet normal 0.876306 -0.481755 0
    outer loop
      vertex 31.6053 10.3022 0
      vertex 31.7865 10.6317 0
      vertex 31.6053 10.3022 2
    endloop
  endfacet
  facet normal 0.728969 -0.684546 0
    outer loop
      vertex 32.0439 10.9058 0
      vertex 32.0439 10.9058 2
      vertex 31.7865 10.6317 2
    endloop
  endfacet
  facet normal 0.728969 -0.684546 0
    outer loop
      vertex 31.7865 10.6317 0
      vertex 32.0439 10.9058 0
      vertex 31.7865 10.6317 2
    endloop
  endfacet
  facet normal 0.535827 -0.844328 0
    outer loop
      vertex 32.3613 11.1072 0
      vertex 32.3613 11.1072 2
      vertex 32.0439 10.9058 2
    endloop
  endfacet
  facet normal 0.535827 -0.844328 0
    outer loop
      vertex 32.0439 10.9058 0
      vertex 32.3613 11.1072 0
      vertex 32.0439 10.9058 2
    endloop
  endfacet
  facet normal 0.309016 -0.951057 0
    outer loop
      vertex 32.7189 11.2234 0
      vertex 32.7189 11.2234 2
      vertex 32.3613 11.1072 2
    endloop
  endfacet
  facet normal 0.309016 -0.951057 0
    outer loop
      vertex 32.3613 11.1072 0
      vertex 32.7189 11.2234 0
      vertex 32.3613 11.1072 2
    endloop
  endfacet
  facet normal 0.0627899 -0.998027 0
    outer loop
      vertex 33.0942 11.247 0
      vertex 33.0942 11.247 2
      vertex 32.7189 11.2234 2
    endloop
  endfacet
  facet normal 0.0627899 -0.998027 0
    outer loop
      vertex 32.7189 11.2234 0
      vertex 33.0942 11.247 0
      vertex 32.7189 11.2234 2
    endloop
  endfacet
  facet normal -0.187381 -0.982287 0
    outer loop
      vertex 33.4635 11.1766 0
      vertex 33.4635 11.1766 2
      vertex 33.0942 11.247 2
    endloop
  endfacet
  facet normal -0.187381 -0.982287 0
    outer loop
      vertex 33.0942 11.247 0
      vertex 33.4635 11.1766 0
      vertex 33.0942 11.247 2
    endloop
  endfacet
  facet normal -0.425779 -0.904827 0
    outer loop
      vertex 33.8037 11.0165 0
      vertex 33.8037 11.0165 2
      vertex 33.4635 11.1766 2
    endloop
  endfacet
  facet normal -0.425779 -0.904827 0
    outer loop
      vertex 33.4635 11.1766 0
      vertex 33.8037 11.0165 0
      vertex 33.4635 11.1766 2
    endloop
  endfacet
  facet normal -0.637423 -0.770514 0
    outer loop
      vertex 34.0935 10.7768 0
      vertex 34.0935 10.7768 2
      vertex 33.8037 11.0165 2
    endloop
  endfacet
  facet normal -0.637423 -0.770514 0
    outer loop
      vertex 33.8037 11.0165 0
      vertex 34.0935 10.7768 0
      vertex 33.8037 11.0165 2
    endloop
  endfacet
  facet normal -0.809017 -0.587785 0
    outer loop
      vertex 34.3145 10.4726 2
      vertex 34.0935 10.7768 2
      vertex 34.3145 10.4726 0
    endloop
  endfacet
  facet normal -0.809017 -0.587785 0
    outer loop
      vertex 34.3145 10.4726 0
      vertex 34.0935 10.7768 2
      vertex 34.0935 10.7768 0
    endloop
  endfacet
  facet normal -0.929776 -0.368125 0
    outer loop
      vertex 34.4529 10.123 2
      vertex 34.3145 10.4726 2
      vertex 34.4529 10.123 0
    endloop
  endfacet
  facet normal -0.929776 -0.368125 0
    outer loop
      vertex 34.4529 10.123 0
      vertex 34.3145 10.4726 2
      vertex 34.3145 10.4726 0
    endloop
  endfacet
  facet normal -0.992115 -0.125333 0
    outer loop
      vertex 34.5 9.75 2
      vertex 34.4529 10.123 2
      vertex 34.5 9.75 0
    endloop
  endfacet
  facet normal -0.992115 -0.125333 0
    outer loop
      vertex 34.5 9.75 0
      vertex 34.4529 10.123 2
      vertex 34.4529 10.123 0
    endloop
  endfacet
  facet normal -0.992115 0.125333 0
    outer loop
      vertex 34.5 9.75 2
      vertex 34.5 9.75 0
      vertex 34.4529 9.37696 2
    endloop
  endfacet
  facet normal -0.992115 0.125333 0
    outer loop
      vertex 34.4529 9.37696 2
      vertex 34.5 9.75 0
      vertex 34.4529 9.37696 0
    endloop
  endfacet
  facet normal -0.929776 0.368125 0
    outer loop
      vertex 34.4529 9.37696 2
      vertex 34.4529 9.37696 0
      vertex 34.3145 9.02737 2
    endloop
  endfacet
  facet normal -0.929776 0.368125 0
    outer loop
      vertex 34.3145 9.02737 2
      vertex 34.4529 9.37696 0
      vertex 34.3145 9.02737 0
    endloop
  endfacet
  facet normal -0.809017 0.587785 0
    outer loop
      vertex 34.3145 9.02737 2
      vertex 34.3145 9.02737 0
      vertex 34.0935 8.72318 2
    endloop
  endfacet
  facet normal -0.809017 0.587785 0
    outer loop
      vertex 34.0935 8.72318 2
      vertex 34.3145 9.02737 0
      vertex 34.0935 8.72318 0
    endloop
  endfacet
  facet normal -0.637423 0.770514 0
    outer loop
      vertex 34.0935 8.72318 2
      vertex 34.0935 8.72318 0
      vertex 33.8037 8.48351 2
    endloop
  endfacet
  facet normal -0.637423 0.770514 0
    outer loop
      vertex 33.8037 8.48351 2
      vertex 34.0935 8.72318 0
      vertex 33.8037 8.48351 0
    endloop
  endfacet
  facet normal -0.425779 0.904827 0
    outer loop
      vertex 33.8037 8.48351 2
      vertex 33.8037 8.48351 0
      vertex 33.4635 8.32341 2
    endloop
  endfacet
  facet normal -0.425779 0.904827 0
    outer loop
      vertex 33.4635 8.32341 2
      vertex 33.8037 8.48351 0
      vertex 33.4635 8.32341 0
    endloop
  endfacet
  facet normal -0.187381 0.982287 0
    outer loop
      vertex 33.4635 8.32341 2
      vertex 33.4635 8.32341 0
      vertex 33.0942 8.25296 2
    endloop
  endfacet
  facet normal -0.187381 0.982287 0
    outer loop
      vertex 33.0942 8.25296 2
      vertex 33.4635 8.32341 0
      vertex 33.0942 8.25296 0
    endloop
  endfacet
  facet normal 0.0627899 0.998027 0
    outer loop
      vertex 33.0942 8.25296 2
      vertex 33.0942 8.25296 0
      vertex 32.7189 8.27657 2
    endloop
  endfacet
  facet normal 0.0627899 0.998027 0
    outer loop
      vertex 32.7189 8.27657 2
      vertex 33.0942 8.25296 0
      vertex 32.7189 8.27657 0
    endloop
  endfacet
  facet normal 0.309016 0.951057 0
    outer loop
      vertex 32.7189 8.27657 2
      vertex 32.7189 8.27657 0
      vertex 32.3613 8.39276 2
    endloop
  endfacet
  facet normal 0.309016 0.951057 0
    outer loop
      vertex 32.3613 8.39276 2
      vertex 32.7189 8.27657 0
      vertex 32.3613 8.39276 0
    endloop
  endfacet
  facet normal 0.535827 0.844328 0
    outer loop
      vertex 32.3613 8.39276 2
      vertex 32.3613 8.39276 0
      vertex 32.0439 8.59423 2
    endloop
  endfacet
  facet normal 0.535827 0.844328 0
    outer loop
      vertex 32.0439 8.59423 2
      vertex 32.3613 8.39276 0
      vertex 32.0439 8.59423 0
    endloop
  endfacet
  facet normal 0.728969 0.684546 0
    outer loop
      vertex 31.7865 8.86832 2
      vertex 32.0439 8.59423 2
      vertex 32.0439 8.59423 0
    endloop
  endfacet
  facet normal 0.728969 0.684546 0
    outer loop
      vertex 31.7865 8.86832 0
      vertex 31.7865 8.86832 2
      vertex 32.0439 8.59423 0
    endloop
  endfacet
  facet normal 0.876306 0.481755 0
    outer loop
      vertex 31.6053 9.19781 2
      vertex 31.7865 8.86832 2
      vertex 31.7865 8.86832 0
    endloop
  endfacet
  facet normal 0.876306 0.481755 0
    outer loop
      vertex 31.6053 9.19781 0
      vertex 31.6053 9.19781 2
      vertex 31.7865 8.86832 0
    endloop
  endfacet
  facet normal 0.968583 0.248689 0
    outer loop
      vertex 31.5118 9.562 2
      vertex 31.6053 9.19781 2
      vertex 31.6053 9.19781 0
    endloop
  endfacet
  facet normal 0.968583 0.248689 0
    outer loop
      vertex 31.5118 9.562 0
      vertex 31.5118 9.562 2
      vertex 31.6053 9.19781 0
    endloop
  endfacet
  facet normal 0 0 -1
    outer loop
      vertex -38 -13.493 15.8
      vertex -38 -22.493 15.8
      vertex -40 -13.493 15.8
    endloop
  endfacet
  facet normal 0 0 -1
    outer loop
      vertex -40 -13.493 15.8
      vertex -38 -22.493 15.8
      vertex -40 -22.493 15.8
    endloop
  endfacet
  facet normal 0 1 0
    outer loop
      vertex -38 -22.493 15.8
      vertex -38 -22.493 4.8
      vertex -40 -22.493 15.8
    endloop
  endfacet
  facet normal 0 1 0
    outer loop
      vertex -40 -22.493 15.8
      vertex -38 -22.493 4.8
      vertex -40 -22.493 4.8
    endloop
  endfacet
  facet normal 0 -1 0
    outer loop
      vertex -38 -13.493 4.8
      vertex -38 -13.493 15.8
      vertex -40 -13.493 15.8
    endloop
  endfacet
  facet normal 0 -1 0
    outer loop
      vertex -40 -13.493 4.8
      vertex -38 -13.493 4.8
      vertex -40 -13.493 15.8
    endloop
  endfacet
  facet normal 0 0 1
    outer loop
      vertex -38 -22.493 4.8
      vertex -38 -13.493 4.8
      vertex -40 -13.493 4.8
    endloop
  endfacet
  facet normal 0 0 1
    outer loop
      vertex -40 -22.493 4.8
      vertex -38 -22.493 4.8
      vertex -40 -13.493 4.8
    endloop
  endfacet
  facet normal 0 1 0
    outer loop
      vertex -38 6.4376 15.8
      vertex -38 6.4376 4.8
      vertex -40 6.4376 15.8
    endloop
  endfacet
  facet normal 0 1 0
    outer loop
      vertex -40 6.4376 15.8
      vertex -38 6.4376 4.8
      vertex -40 6.4376 4.8
    endloop
  endfacet
  facet normal 0 0 -1
    outer loop
      vertex -38 18.4376 15.8
      vertex -38 6.4376 15.8
      vertex -40 18.4376 15.8
    endloop
  endfacet
  facet normal 0 0 -1
    outer loop
      vertex -40 18.4376 15.8
      vertex -38 6.4376 15.8
      vertex -40 6.4376 15.8
    endloop
  endfacet
  facet normal 0 -1 0
    outer loop
      vertex -38 18.4376 4.8
      vertex -38 18.4376 15.8
      vertex -40 18.4376 15.8
    endloop
  endfacet
  facet normal 0 -1 0
    outer loop
      vertex -40 18.4376 4.8
      vertex -38 18.4376 4.8
      vertex -40 18.4376 15.8
    endloop
  endfacet
  facet normal 0 0 1
    outer loop
      vertex -38 6.4376 4.8
      vertex -38 18.4376 4.8
      vertex -40 18.4376 4.8
    endloop
  endfacet
  facet normal 0 0 1
    outer loop
      vertex -40 6.4376 4.8
      vertex -38 6.4376 4.8
      vertex -40 18.4376 4.8
    endloop
  endfacet
  facet normal 0.707107 0.707107 0
    outer loop
      vertex -36 -38 20
      vertex -36 -38 2
      vertex -38 -36 20
    endloop
  endfacet
  facet normal 0.707107 0.707107 0
    outer loop
      vertex -38 -36 20
      vertex -36 -38 2
      vertex -38 -36 2
    endloop
  endfacet
  facet normal 1 0 0
    outer loop
      vertex -38 -13.493 15.8
      vertex -38 36 20
      vertex -38 -36 20
    endloop
  endfacet
  facet normal 1 0 0
    outer loop
      vertex -38 18.4376 15.8
      vertex -38 18.4376 4.8
      vertex -38 36 2
    endloop
  endfacet
  facet normal 1 0 0
    outer loop
      vertex -38 -36 2
      vertex -38 -22.493 15.8
      vertex -38 -36 20
    endloop
  endfacet
  facet normal 1 0 0
    outer loop
      vertex -38 6.4376 4.8
      vertex -38 6.4376 15.8
      vertex -38 -13.493 15.8
    endloop
  endfacet
  facet normal 1 0 0
    outer loop
      vertex -38 6.4376 15.8
      vertex -38 36 20
      vertex -38 -13.493 15.8
    endloop
  endfacet
  facet normal 1 0 0
    outer loop
      vertex -38 -36 2
      vertex -38 36 2
      vertex -38 -13.493 4.8
    endloop
  endfacet
  facet normal 1 0 0
    outer loop
      vertex -38 -36 2
      vertex -38 -22.493 4.8
      vertex -38 -22.493 15.8
    endloop
  endfacet
  facet normal 1 0 0
    outer loop
      vertex -38 -36 2
      vertex -38 -13.493 4.8
      vertex -38 -22.493 4.8
    endloop
  endfacet
  facet normal 1 0 0
    outer loop
      vertex -38 18.4376 15.8
      vertex -38 36 20
      vertex -38 6.4376 15.8
    endloop
  endfacet
  facet normal 1 0 0
    outer loop
      vertex -38 36 2
      vertex -38 36 20
      vertex -38 18.4376 15.8
    endloop
  endfacet
  facet normal 1 0 0
    outer loop
      vertex -38 6.4376 4.8
      vertex -38 36 2
      vertex -38 18.4376 4.8
    endloop
  endfacet
  facet normal 1 0 0
    outer loop
      vertex -38 -13.493 4.8
      vertex -38 36 2
      vertex -38 6.4376 4.8
    endloop
  endfacet
  facet normal 1 0 0
    outer loop
      vertex -38 -22.493 15.8
      vertex -38 -13.493 15.8
      vertex -38 -36 20
    endloop
  endfacet
  facet normal 1 0 0
    outer loop
      vertex -38 -13.493 15.8
      vertex -38 -13.493 4.8
      vertex -38 6.4376 4.8
    endloop
  endfacet
  facet normal 0 1 0
    outer loop
      vertex 29 -38 20
      vertex 29 -38 2
      vertex -36 -38 20
    endloop
  endfacet
  facet normal 0 1 0
    outer loop
      vertex -36 -38 20
      vertex 29 -38 2
      vertex -36 -38 2
    endloop
  endfacet
  facet normal -0.707107 0.707107 0
    outer loop
      vertex 38 -29 20
      vertex 38 -29 2
      vertex 29 -38 20
    endloop
  endfacet
  facet normal -0.707107 0.707107 0
    outer loop
      vertex 29 -38 20
      vertex 38 -29 2
      vertex 29 -38 2
    endloop
  endfacet
  facet normal -1 0 0
    outer loop
      vertex 38 -2 20
      vertex 38 -2 2
      vertex 38 -29 20
    endloop
  endfacet
  facet normal -1 0 0
    outer loop
      vertex 38 -29 20
      vertex 38 -2 2
      vertex 38 -29 2
    endloop
  endfacet
  facet normal 0 -1 0
    outer loop
      vertex 38 -2 2
      vertex 38 -2 20
      vertex 36 -2 20
    endloop
  endfacet
  facet normal 0 -1 0
    outer loop
      vertex 36 -2 2
      vertex 38 -2 2
      vertex 36 -2 20
    endloop
  endfacet
  facet normal -1 0 0
    outer loop
      vertex 36 2 20
      vertex 36 2 2
      vertex 36 -2 20
    endloop
  endfacet
  facet normal -1 0 0
    outer loop
      vertex 36 -2 20
      vertex 36 2 2
      vertex 36 -2 2
    endloop
  endfacet
  facet normal 0 1 0
    outer loop
      vertex 38 2 20
      vertex 38 2 2
      vertex 36 2 20
    endloop
  endfacet
  facet normal 0 1 0
    outer loop
      vertex 36 2 20
      vertex 38 2 2
      vertex 36 2 2
    endloop
  endfacet
  facet normal -1 0 0
    outer loop
      vertex 38 29 20
      vertex 38 29 2
      vertex 38 2 20
    endloop
  endfacet
  facet normal -1 0 0
    outer loop
      vertex 38 2 20
      vertex 38 29 2
      vertex 38 2 2
    endloop
  endfacet
  facet normal -0.707107 -0.707107 0
    outer loop
      vertex 38 29 2
      vertex 38 29 20
      vertex 29 38 20
    endloop
  endfacet
  facet normal -0.707107 -0.707107 0
    outer loop
      vertex 29 38 2
      vertex 38 29 2
      vertex 29 38 20
    endloop
  endfacet
  facet normal 0 -1 0
    outer loop
      vertex 29 38 2
      vertex 29 38 20
      vertex -36 38 20
    endloop
  endfacet
  facet normal 0 -1 0
    outer loop
      vertex -36 38 2
      vertex 29 38 2
      vertex -36 38 20
    endloop
  endfacet
  facet normal 0.707107 -0.707107 0
    outer loop
      vertex -36 38 2
      vertex -36 38 20
      vertex -38 36 20
    endloop
  endfacet
  facet normal 0.707107 -0.707107 0
    outer loop
      vertex -38 36 2
      vertex -36 38 2
      vertex -38 36 20
    endloop
  endfacet
  facet normal 0 0 1
    outer loop
      vertex -36 -38 2
      vertex 29 -38 2
      vertex 38 -29 2
    endloop
  endfacet
  facet normal 0 0 1
    outer loop
      vertex 36 -2 2
      vertex -36 -38 2
      vertex 38 -2 2
    endloop
  endfacet
  facet normal 0 0 1
    outer loop
      vertex 32.3613 -19.6072 2
      vertex -36 -38 2
      vertex 38 -29 2
    endloop
  endfacet
  facet normal 0 0 1
    outer loop
      vertex 36 2 2
      vertex -36 -38 2
      vertex 36 -2 2
    endloop
  endfacet
  facet normal 0 0 1
    outer loop
      vertex -18.2892 -24.6692 2
      vertex -36 -38 2
      vertex 36 2 2
    endloop
  endfacet
  facet normal 0 0 1
    outer loop
      vertex 38 29 2
      vertex 36 2 2
      vertex 38 2 2
    endloop
  endfacet
  facet normal 0 0 1
    outer loop
      vertex -18.2892 -24.6692 2
      vertex -18.6294 -24.8293 2
      vertex -36 -38 2
    endloop
  endfacet
  facet normal 0 0 1
    outer loop
      vertex -16.5471 24.627 2
      vertex -36 -38 2
      vertex 29 38 2
    endloop
  endfacet
  facet normal 0 0 1
    outer loop
      vertex -38 36 2
      vertex -36 -38 2
      vertex -36 38 2
    endloop
  endfacet
  facet normal 0 0 1
    outer loop
      vertex -38 -36 2
      vertex -36 -38 2
      vertex -38 36 2
    endloop
  endfacet
  facet normal 0 0 1
    outer loop
      vertex -20.4876 -22.8505 2
      vertex -36 -38 2
      vertex -20.5811 -23.2147 2
    endloop
  endfacet
  facet normal 0 0 1
    outer loop
      vertex -20.3064 -22.521 2
      vertex -36 -38 2
      vertex -20.4876 -22.8505 2
    endloop
  endfacet
  facet normal 0 0 1
    outer loop
      vertex 29 38 2
      vertex -36 -38 2
      vertex -20.3064 -22.521 2
    endloop
  endfacet
  facet normal 0 0 1
    outer loop
      vertex -19.7316 -22.0455 2
      vertex -19.374 -21.9293 2
      vertex 29 38 2
    endloop
  endfacet
  facet normal 0 0 1
    outer loop
      vertex 29 38 2
      vertex -20.3064 -22.521 2
      vertex -20.049 -22.2469 2
    endloop
  endfacet
  facet normal 0 0 1
    outer loop
      vertex -19.374 -21.9293 2
      vertex -18.9987 -21.9057 2
      vertex 38 29 2
    endloop
  endfacet
  facet normal 0 0 1
    outer loop
      vertex 29 38 2
      vertex -19.374 -21.9293 2
      vertex 38 29 2
    endloop
  endfacet
  facet normal 0 0 1
    outer loop
      vertex -18.9987 -21.9057 2
      vertex -18.6294 -21.9761 2
      vertex 38 29 2
    endloop
  endfacet
  facet normal 0 0 1
    outer loop
      vertex 32.3613 8.39276 2
      vertex -18.2892 -22.1362 2
      vertex 36 2 2
    endloop
  endfacet
  facet normal 0 0 1
    outer loop
      vertex -18.2892 -22.1362 2
      vertex -17.9995 -22.3759 2
      vertex 36 2 2
    endloop
  endfacet
  facet normal 0 0 1
    outer loop
      vertex -17.9995 -22.3759 2
      vertex -17.7785 -22.6801 2
      vertex 36 2 2
    endloop
  endfacet
  facet normal 0 0 1
    outer loop
      vertex -17.7785 -22.6801 2
      vertex -17.64 -23.0297 2
      vertex 36 2 2
    endloop
  endfacet
  facet normal 0 0 1
    outer loop
      vertex -20.049 -24.5585 2
      vertex -20.3064 -24.2844 2
      vertex -36 -38 2
    endloop
  endfacet
  facet normal 0 0 1
    outer loop
      vertex -17.64 -23.0297 2
      vertex -17.5929 -23.4027 2
      vertex 36 2 2
    endloop
  endfacet
  facet normal 0 0 1
    outer loop
      vertex -17.5929 -23.4027 2
      vertex -17.64 -23.7757 2
      vertex 36 2 2
    endloop
  endfacet
  facet normal 0 0 1
    outer loop
      vertex -17.64 -23.7757 2
      vertex -17.7785 -24.1253 2
      vertex 36 2 2
    endloop
  endfacet
  facet normal 0 0 1
    outer loop
      vertex -17.7785 -24.1253 2
      vertex -17.9995 -24.4295 2
      vertex 36 2 2
    endloop
  endfacet
  facet normal 0 0 1
    outer loop
      vertex -17.9995 -24.4295 2
      vertex -18.2892 -24.6692 2
      vertex 36 2 2
    endloop
  endfacet
  facet normal 0 0 1
    outer loop
      vertex -18.6294 -24.8293 2
      vertex -18.9987 -24.8997 2
      vertex -36 -38 2
    endloop
  endfacet
  facet normal 0 0 1
    outer loop
      vertex -18.9987 -24.8997 2
      vertex -19.374 -24.8761 2
      vertex -36 -38 2
    endloop
  endfacet
  facet normal 0 0 1
    outer loop
      vertex -19.374 -24.8761 2
      vertex -19.7316 -24.7599 2
      vertex -36 -38 2
    endloop
  endfacet
  facet normal 0 0 1
    outer loop
      vertex 34.3145 -18.9726 2
      vertex 34.0935 -19.2768 2
      vertex 38 -29 2
    endloop
  endfacet
  facet normal 0 0 1
    outer loop
      vertex -20.3064 -24.2844 2
      vertex -20.4876 -23.9549 2
      vertex -36 -38 2
    endloop
  endfacet
  facet normal 0 0 1
    outer loop
      vertex -20.4876 -23.9549 2
      vertex -20.5811 -23.5907 2
      vertex -36 -38 2
    endloop
  endfacet
  facet normal 0 0 1
    outer loop
      vertex -19.7316 -24.7599 2
      vertex -20.049 -24.5585 2
      vertex -36 -38 2
    endloop
  endfacet
  facet normal 0 0 1
    outer loop
      vertex -18.2811 26.4734 2
      vertex -17.9058 26.497 2
      vertex 29 38 2
    endloop
  endfacet
  facet normal 0 0 1
    outer loop
      vertex -20.049 -22.2469 2
      vertex -19.7316 -22.0455 2
      vertex 29 38 2
    endloop
  endfacet
  facet normal 0 0 1
    outer loop
      vertex -16.6855 24.2774 2
      vertex -16.9065 23.9732 2
      vertex -36 -38 2
    endloop
  endfacet
  facet normal 0 0 1
    outer loop
      vertex -36 38 2
      vertex -36 -38 2
      vertex -19.4882 25.188 2
    endloop
  endfacet
  facet normal 0 0 1
    outer loop
      vertex -16.9065 26.0268 2
      vertex -16.6855 25.7226 2
      vertex 29 38 2
    endloop
  endfacet
  facet normal 0 0 1
    outer loop
      vertex -36 38 2
      vertex -19.4882 25.188 2
      vertex -19.3947 25.5522 2
    endloop
  endfacet
  facet normal 0 0 1
    outer loop
      vertex -17.1963 26.2665 2
      vertex -16.9065 26.0268 2
      vertex 29 38 2
    endloop
  endfacet
  facet normal 0 0 1
    outer loop
      vertex -36 38 2
      vertex -19.3947 25.5522 2
      vertex -19.2135 25.8817 2
    endloop
  endfacet
  facet normal 0 0 1
    outer loop
      vertex -17.5365 26.4266 2
      vertex -17.1963 26.2665 2
      vertex 29 38 2
    endloop
  endfacet
  facet normal 0 0 1
    outer loop
      vertex -36 38 2
      vertex -19.2135 25.8817 2
      vertex -18.9561 26.1558 2
    endloop
  endfacet
  facet normal 0 0 1
    outer loop
      vertex -17.9058 26.497 2
      vertex -17.5365 26.4266 2
      vertex 29 38 2
    endloop
  endfacet
  facet normal 0 0 1
    outer loop
      vertex -36 38 2
      vertex -18.9561 26.1558 2
      vertex -18.6387 26.3572 2
    endloop
  endfacet
  facet normal 0 0 1
    outer loop
      vertex -36 38 2
      vertex -18.2811 26.4734 2
      vertex 29 38 2
    endloop
  endfacet
  facet normal 0 0 1
    outer loop
      vertex -36 38 2
      vertex -18.6387 26.3572 2
      vertex -18.2811 26.4734 2
    endloop
  endfacet
  facet normal 0 0 1
    outer loop
      vertex -16.6855 25.7226 2
      vertex -16.5471 25.373 2
      vertex 29 38 2
    endloop
  endfacet
  facet normal 0 0 1
    outer loop
      vertex -16.5471 25.373 2
      vertex -16.5 25 2
      vertex 29 38 2
    endloop
  endfacet
  facet normal 0 0 1
    outer loop
      vertex -16.5 25 2
      vertex -16.5471 24.627 2
      vertex 29 38 2
    endloop
  endfacet
  facet normal 0 0 1
    outer loop
      vertex -16.6855 24.2774 2
      vertex -36 -38 2
      vertex -16.5471 24.627 2
    endloop
  endfacet
  facet normal 0 0 1
    outer loop
      vertex -16.9065 23.9732 2
      vertex -17.1963 23.7335 2
      vertex -36 -38 2
    endloop
  endfacet
  facet normal 0 0 1
    outer loop
      vertex -17.1963 23.7335 2
      vertex -17.5365 23.5734 2
      vertex -36 -38 2
    endloop
  endfacet
  facet normal 0 0 1
    outer loop
      vertex 31.7865 -17.3683 2
      vertex 32.0439 -17.0942 2
      vertex 38 -2 2
    endloop
  endfacet
  facet normal 0 0 1
    outer loop
      vertex -17.9058 23.503 2
      vertex -36 -38 2
      vertex -17.5365 23.5734 2
    endloop
  endfacet
  facet normal 0 0 1
    outer loop
      vertex -18.2811 23.5266 2
      vertex -36 -38 2
      vertex -17.9058 23.503 2
    endloop
  endfacet
  facet normal 0 0 1
    outer loop
      vertex -18.6387 23.6428 2
      vertex -36 -38 2
      vertex -18.2811 23.5266 2
    endloop
  endfacet
  facet normal 0 0 1
    outer loop
      vertex -18.9561 23.8442 2
      vertex -36 -38 2
      vertex -18.6387 23.6428 2
    endloop
  endfacet
  facet normal 0 0 1
    outer loop
      vertex -19.2135 24.1183 2
      vertex -36 -38 2
      vertex -18.9561 23.8442 2
    endloop
  endfacet
  facet normal 0 0 1
    outer loop
      vertex -19.3947 24.4478 2
      vertex -36 -38 2
      vertex -19.2135 24.1183 2
    endloop
  endfacet
  facet normal 0 0 1
    outer loop
      vertex -19.4882 24.812 2
      vertex -36 -38 2
      vertex -19.3947 24.4478 2
    endloop
  endfacet
  facet normal 0 0 1
    outer loop
      vertex -19.4882 25.188 2
      vertex -36 -38 2
      vertex -19.4882 24.812 2
    endloop
  endfacet
  facet normal 0 0 1
    outer loop
      vertex 31.6053 10.3022 2
      vertex 31.7865 10.6317 2
      vertex 38 29 2
    endloop
  endfacet
  facet normal 0 0 1
    outer loop
      vertex 31.6053 -17.6978 2
      vertex -36 -38 2
      vertex 31.5118 -18.062 2
    endloop
  endfacet
  facet normal 0 0 1
    outer loop
      vertex 38 -2 2
      vertex -36 -38 2
      vertex 31.6053 -17.6978 2
    endloop
  endfacet
  facet normal 0 0 1
    outer loop
      vertex 34.4529 -17.877 2
      vertex 34.5 -18.25 2
      vertex 38 -29 2
    endloop
  endfacet
  facet normal 0 0 1
    outer loop
      vertex 38 -2 2
      vertex 31.6053 -17.6978 2
      vertex 31.7865 -17.3683 2
    endloop
  endfacet
  facet normal 0 0 1
    outer loop
      vertex 32.7189 -19.7234 2
      vertex 32.3613 -19.6072 2
      vertex 38 -29 2
    endloop
  endfacet
  facet normal 0 0 1
    outer loop
      vertex 33.4635 -19.6766 2
      vertex 33.0942 -19.747 2
      vertex 38 -29 2
    endloop
  endfacet
  facet normal 0 0 1
    outer loop
      vertex 38 -2 2
      vertex 32.0439 -17.0942 2
      vertex 32.3613 -16.8928 2
    endloop
  endfacet
  facet normal 0 0 1
    outer loop
      vertex 33.8037 -19.5165 2
      vertex 33.4635 -19.6766 2
      vertex 38 -29 2
    endloop
  endfacet
  facet normal 0 0 1
    outer loop
      vertex 38 -2 2
      vertex 32.3613 -16.8928 2
      vertex 32.7189 -16.7766 2
    endloop
  endfacet
  facet normal 0 0 1
    outer loop
      vertex 34.0935 -19.2768 2
      vertex 33.8037 -19.5165 2
      vertex 38 -29 2
    endloop
  endfacet
  facet normal 0 0 1
    outer loop
      vertex 38 -2 2
      vertex 32.7189 -16.7766 2
      vertex 33.0942 -16.753 2
    endloop
  endfacet
  facet normal 0 0 1
    outer loop
      vertex 34.3145 9.02737 2
      vertex 34.0935 8.72318 2
      vertex 36 2 2
    endloop
  endfacet
  facet normal 0 0 1
    outer loop
      vertex 38 -2 2
      vertex 33.0942 -16.753 2
      vertex 33.4635 -16.8234 2
    endloop
  endfacet
  facet normal 0 0 1
    outer loop
      vertex 38 -2 2
      vertex 33.4635 -16.8234 2
      vertex 33.8037 -16.9835 2
    endloop
  endfacet
  facet normal 0 0 1
    outer loop
      vertex 34.4529 -18.623 2
      vertex 34.3145 -18.9726 2
      vertex 38 -29 2
    endloop
  endfacet
  facet normal 0 0 1
    outer loop
      vertex 38 -2 2
      vertex 33.8037 -16.9835 2
      vertex 34.0935 -17.2232 2
    endloop
  endfacet
  facet normal 0 0 1
    outer loop
      vertex 34.5 -18.25 2
      vertex 34.4529 -18.623 2
      vertex 38 -29 2
    endloop
  endfacet
  facet normal 0 0 1
    outer loop
      vertex 38 -2 2
      vertex 34.0935 -17.2232 2
      vertex 34.3145 -17.5274 2
    endloop
  endfacet
  facet normal 0 0 1
    outer loop
      vertex 38 -2 2
      vertex 34.4529 -17.877 2
      vertex 38 -29 2
    endloop
  endfacet
  facet normal 0 0 1
    outer loop
      vertex 38 -2 2
      vertex 34.3145 -17.5274 2
      vertex 34.4529 -17.877 2
    endloop
  endfacet
  facet normal 0 0 1
    outer loop
      vertex 33.0942 -19.747 2
      vertex 32.7189 -19.7234 2
      vertex 38 -29 2
    endloop
  endfacet
  facet normal 0 0 1
    outer loop
      vertex 32.0439 -19.4058 2
      vertex -36 -38 2
      vertex 32.3613 -19.6072 2
    endloop
  endfacet
  facet normal 0 0 1
    outer loop
      vertex 31.7865 -19.1317 2
      vertex -36 -38 2
      vertex 32.0439 -19.4058 2
    endloop
  endfacet
  facet normal 0 0 1
    outer loop
      vertex 31.6053 -18.8022 2
      vertex -36 -38 2
      vertex 31.7865 -19.1317 2
    endloop
  endfacet
  facet normal 0 0 1
    outer loop
      vertex 31.5118 -18.438 2
      vertex -36 -38 2
      vertex 31.6053 -18.8022 2
    endloop
  endfacet
  facet normal 0 0 1
    outer loop
      vertex 31.5118 -18.062 2
      vertex -36 -38 2
      vertex 31.5118 -18.438 2
    endloop
  endfacet
  facet normal 0 0 1
    outer loop
      vertex 31.6053 10.3022 2
      vertex -18.2892 -22.1362 2
      vertex 31.5118 9.938 2
    endloop
  endfacet
  facet normal 0 0 1
    outer loop
      vertex 34.5 9.75 2
      vertex 34.4529 9.37696 2
      vertex 36 2 2
    endloop
  endfacet
  facet normal 0 0 1
    outer loop
      vertex 38 29 2
      vertex -18.2892 -22.1362 2
      vertex 31.6053 10.3022 2
    endloop
  endfacet
  facet normal 0 0 1
    outer loop
      vertex 32.7189 8.27657 2
      vertex 32.3613 8.39276 2
      vertex 36 2 2
    endloop
  endfacet
  facet normal 0 0 1
    outer loop
      vertex 33.0942 8.25296 2
      vertex 32.7189 8.27657 2
      vertex 36 2 2
    endloop
  endfacet
  facet normal 0 0 1
    outer loop
      vertex 38 29 2
      vertex 31.7865 10.6317 2
      vertex 32.0439 10.9058 2
    endloop
  endfacet
  facet normal 0 0 1
    outer loop
      vertex 33.4635 8.32341 2
      vertex 33.0942 8.25296 2
      vertex 36 2 2
    endloop
  endfacet
  facet normal 0 0 1
    outer loop
      vertex 38 29 2
      vertex 32.0439 10.9058 2
      vertex 32.3613 11.1072 2
    endloop
  endfacet
  facet normal 0 0 1
    outer loop
      vertex 38 29 2
      vertex 32.3613 11.1072 2
      vertex 32.7189 11.2234 2
    endloop
  endfacet
  facet normal 0 0 1
    outer loop
      vertex 38 29 2
      vertex 32.7189 11.2234 2
      vertex 33.0942 11.247 2
    endloop
  endfacet
  facet normal 0 0 1
    outer loop
      vertex 34.0935 8.72318 2
      vertex 33.8037 8.48351 2
      vertex 36 2 2
    endloop
  endfacet
  facet normal 0 0 1
    outer loop
      vertex 38 29 2
      vertex 33.0942 11.247 2
      vertex 33.4635 11.1766 2
    endloop
  endfacet
  facet normal 0 0 1
    outer loop
      vertex 33.8037 8.48351 2
      vertex 33.4635 8.32341 2
      vertex 36 2 2
    endloop
  endfacet
  facet normal 0 0 1
    outer loop
      vertex 38 29 2
      vertex 33.4635 11.1766 2
      vertex 33.8037 11.0165 2
    endloop
  endfacet
  facet normal 0 0 1
    outer loop
      vertex 38 29 2
      vertex 33.8037 11.0165 2
      vertex 34.0935 10.7768 2
    endloop
  endfacet
  facet normal 0 0 1
    outer loop
      vertex 34.4529 9.37696 2
      vertex 34.3145 9.02737 2
      vertex 36 2 2
    endloop
  endfacet
  facet normal 0 0 1
    outer loop
      vertex 38 29 2
      vertex 34.0935 10.7768 2
      vertex 34.3145 10.4726 2
    endloop
  endfacet
  facet normal 0 0 1
    outer loop
      vertex 38 29 2
      vertex 34.4529 10.123 2
      vertex 36 2 2
    endloop
  endfacet
  facet normal 0 0 1
    outer loop
      vertex 38 29 2
      vertex 34.3145 10.4726 2
      vertex 34.4529 10.123 2
    endloop
  endfacet
  facet normal 0 0 1
    outer loop
      vertex 34.4529 10.123 2
      vertex 34.5 9.75 2
      vertex 36 2 2
    endloop
  endfacet
  facet normal 0 0 1
    outer loop
      vertex 32.0439 8.59423 2
      vertex -18.2892 -22.1362 2
      vertex 32.3613 8.39276 2
    endloop
  endfacet
  facet normal 0 0 1
    outer loop
      vertex 31.7865 8.86832 2
      vertex -18.2892 -22.1362 2
      vertex 32.0439 8.59423 2
    endloop
  endfacet
  facet normal 0 0 1
    outer loop
      vertex 31.6053 9.19781 2
      vertex -18.2892 -22.1362 2
      vertex 31.7865 8.86832 2
    endloop
  endfacet
  facet normal 0 0 1
    outer loop
      vertex 31.5118 9.562 2
      vertex -18.2892 -22.1362 2
      vertex 31.6053 9.19781 2
    endloop
  endfacet
  facet normal 0 0 1
    outer loop
      vertex 31.5118 9.938 2
      vertex -18.2892 -22.1362 2
      vertex 31.5118 9.562 2
    endloop
  endfacet
  facet normal 0 0 1
    outer loop
      vertex -20.5811 -23.5907 2
      vertex -20.5811 -23.2147 2
      vertex -36 -38 2
    endloop
  endfacet
  facet normal 0 0 1
    outer loop
      vertex -18.6294 -21.9761 2
      vertex -18.2892 -22.1362 2
      vertex 38 29 2
    endloop
  endfacet
endsolid OpenSCAD_Model
